<?xml version="1.0" encoding="UTF-8"?>
<!DOCTYPE svg PUBLIC "-//W3C//DTD SVG 1.1//EN" "http://www.w3.org/Graphics/SVG/1.1/DTD/svg11.dtd">
<!-- Creator: CorelDRAW 2020 (64-Bit) -->
<svg xmlns="http://www.w3.org/2000/svg" xml:space="preserve" width="21.59cm" height="27.94cm" version="1.1" style="shape-rendering:geometricPrecision; text-rendering:geometricPrecision; image-rendering:optimizeQuality; fill-rule:evenodd; clip-rule:evenodd"
viewBox="0 0 8378.29 8243.31"
 xmlns:xlink="http://www.w3.org/1999/xlink"
 xmlns:xodm="http://www.corel.com/coreldraw/odm/2003">
 <defs>
  <style type="text/css">
   <![CDATA[
    .fil2 {fill:url(#id0)}
    .fil1 {fill:url(#id1)}
    .fil0 {fill:url(#id2)}
   ]]>
  </style>
  <linearGradient id="id0" gradientUnits="userSpaceOnUse" x1="8295.97" y1="4793.68" x2="5346.14" y2="7100.41">
   <stop offset="0" style="stop-opacity:1; stop-color:#FEFEFE"/>
   <stop offset="1" style="stop-opacity:1; stop-color:#CED9DE"/>
  </linearGradient>
  <linearGradient id="id1" gradientUnits="userSpaceOnUse" xlink:href="#id0" x1="7636.98" y1="206.29" x2="5975.3" y2="2472.83">
  </linearGradient>
  <linearGradient id="id2" gradientUnits="userSpaceOnUse" xlink:href="#id0" x1="4522" y1="2690.86" x2="-269.6" y2="5544.01">
  </linearGradient>
 </defs>
 <g id="Layer_x0020_1">
  <metadata id="CorelCorpID_0Corel-Layer"/>
  <path class="fil0" d="M237.53 0l1888.68 0c1169.42,0 2126.19,956.77 2126.19,2126.19l0 3982.48c0,1169.42 -956.77,2126.19 -2126.19,2126.19l-1809.51 0c-174.19,0 -316.7,-142.51 -316.7,-316.7l0 -7680.64c0,-130.65 106.88,-237.53 237.53,-237.53z"/>
  <path class="fil1" d="M5249.04 23.22l2798.81 0c173.47,0 315.38,141.91 315.38,315.4l0 2317.28 -3114.2 0 0 -2632.68z"/>
  <path class="fil2" d="M5263.82 3650.79l3114.47 0 0 4211.55c0,209.53 -171.44,380.97 -380.97,380.97l-2733.5 0 0 -4592.52z"/>
 </g>
</svg>
